HIERARCHY
ROOT Hips
{
	OFFSET 0.00000 0.00000 0.00000
	CHANNELS 6 Xposition Yposition Zposition Zrotation Yrotation Xrotation 
	JOINT LHipJoint
	{
		OFFSET 0 0 0
		CHANNELS 3 Zrotation Yrotation Xrotation
		JOINT LeftHip
		{
			OFFSET 1.29432 -1.88279 0.59910
			CHANNELS 3 Zrotation Yrotation Xrotation
			JOINT LeftKnee
			{
				OFFSET 2.63039 -7.22694 0.00000
				CHANNELS 3 Zrotation Yrotation Xrotation
				JOINT LeftAnkle
				{
					OFFSET 2.70674 -7.43672 0.00000
					CHANNELS 3 Zrotation Yrotation Xrotation
					JOINT LeftToe
					{
						OFFSET 0.15066 -0.41394 2.09027
						CHANNELS 3 Zrotation Yrotation Xrotation
						End Site
						{
							OFFSET 0.00000 -0.00000 1.07518
						}
					}
				}
			}
		}
	}
	JOINT RHipJoint
	{
		OFFSET 0 0 0
		CHANNELS 3 Zrotation Yrotation Xrotation
		JOINT RightHip
		{
			OFFSET -1.37068 -1.88279 0.59910
			CHANNELS 3 Zrotation Yrotation Xrotation
			JOINT RightKnee
			{
				OFFSET -2.57023 -7.06166 0.00000
				CHANNELS 3 Zrotation Yrotation Xrotation
				JOINT RightAnkle
				{
					OFFSET -2.76461 -7.59570 0.00000
					CHANNELS 3 Zrotation Yrotation Xrotation
					JOINT RightToe
					{
						OFFSET -0.24175 -0.64785 2.19719
						CHANNELS 3 Zrotation Yrotation Xrotation
						End Site
						{
							OFFSET -0.00000 -0.00000 1.14803
						}
					}
				}
			}
		}
	}
	JOINT lowerback
	{
		OFFSET 0 0 0
		CHANNELS 3 Zrotation Yrotation Xrotation
		JOINT Chest
		{
			OFFSET -0.03138 2.03983 -0.23106
			CHANNELS 3 Zrotation Yrotation Xrotation
			JOINT Chest2
			{
				OFFSET -0.00325 2.06238 -0.06878
				CHANNELS 3 Zrotation Yrotation Xrotation
				JOINT lowerneck
				{
					OFFSET 0 0 0
					CHANNELS 3 Zrotation Yrotation Xrotation
					JOINT Neck
					{
						OFFSET -0.00002 1.75318 0.18090
						CHANNELS 3 Zrotation Yrotation Xrotation
						JOINT Head
						{
							OFFSET 0.08806 1.75856 -0.25387
							CHANNELS 3 Zrotation Yrotation Xrotation
							End Site
							{
								OFFSET 0.02554 1.78597 -0.10684
							}
						}
					}
				}
				JOINT LeftCollar
				{
					OFFSET 0 0 0
					CHANNELS 3 Zrotation Yrotation Xrotation
					JOINT LeftShoulder
					{
						OFFSET 3.09657 1.33597 -0.04414
CHANNELS 3 Zrotation Xrotation Yrotation
						JOINT LeftElbow
						{
OFFSET 0 -5.342980 -0.000000
CHANNELS 3 Zrotation Xrotation Yrotation
							JOINT LeftWrist
							{
OFFSET 0 -3.672620 -0.000000
CHANNELS 3 Zrotation Xrotation Yrotation
								JOINT lhand
								{
									OFFSET 0 0 0
CHANNELS 3 Zrotation Xrotation Yrotation
									JOINT LFingers
									{
OFFSET 0 -0.599300 -0.000000
CHANNELS 3 Zrotation Xrotation Yrotation
										End Site
										{
OFFSET 0 -0.483170 -0.000000
										}
									}
								}
								JOINT LThumb
								{
OFFSET 0 0.000000 0.000000
CHANNELS 3 Zrotation Xrotation Yrotation
									End Site
									{
OFFSET 0 -0.490550 0.490550
									}
								}
							}
						}
					}
				}
				JOINT RightCollar
				{
					OFFSET 0 0 0
					CHANNELS 3 Zrotation Yrotation Xrotation
					JOINT RightShoulder
					{
						OFFSET -3.16460 1.32273 -0.23382
CHANNELS 3 Zrotation Xrotation Yrotation
						JOINT RightElbow
						{
OFFSET 0 -5.549670 0.033480
CHANNELS 3 Zrotation Xrotation Yrotation
							JOINT RightWrist
							{
OFFSET 0 -3.694010 0.000000
CHANNELS 3 Zrotation Xrotation Yrotation
								JOINT rhand
								{
									OFFSET 0 0 0
CHANNELS 3 Zrotation Xrotation Yrotation
									JOINT RFingers
									{
OFFSET 0 -0.638110 0.000000
CHANNELS 3 Zrotation Xrotation Yrotation
										End Site
										{
OFFSET 0 -0.514460 0.000000
										}
									}
								}
								JOINT RThumb
								{
OFFSET 0 0.000000 0.000000
CHANNELS 3 Zrotation Xrotation Yrotation
									End Site
									{
OFFSET 0 -0.522320 0.522320
									}
								}
							}
						}
					}
				}
			}
		}
	}
}
MOTION
Frames: 6
Frame Time: 0.008333333333333333
12.738572 17.807416 -13.134177 4.527189 -18.735749 2.716466 0.000000 0.000000 0.000000 -20.342970 -1.341064 -12.650009 0.937227 6.166525 17.268344 0.161055 6.948556 -13.064633 0.918907 6.107061 17.095443 0.000000 0.000000 0.000000 16.842785 8.438382 -6.476299 -1.820663 -8.482046 24.188144 -1.009346 -8.116081 -23.560405 -0.013420 0.738750 -2.030114 -2.676869 1.397044 0.581229 -1.577957 1.934085 3.617210 -0.080389 0.905997 3.360719 2.136710 -0.395822 -6.081378 8.068196 -4.788315 41.166095 2.401893 -0.816456 15.872107 0.000000 0.000000 0.000000 1.001092 1.506413 -12.817032 15.407925 -24.711376 3.394653 13.001883 30.267961 -30.257039 0.000000 0.000000 0.000000 -7.125000 0.000000 0.000000 -20.974240 59.644561 7.705489 0.000000 0.000000 0.000000 -1.087156 -0.214744 21.246252 -20.147005 -30.819059 -5.606494 -24.689959 6.347301 -22.959253 0.000000 0.000000 0.000000 7.125000 0.000000 0.000000 2.703795 5.005537 2.459996
12.718072 17.807686 -13.156104 4.285271 -18.891081 2.869720 0.000000 0.000000 0.000000 -19.922643 -1.579513 -12.876920 0.967868 6.263580 17.551186 0.189686 6.967775 -13.548009 1.054187 6.525288 18.317557 0.000000 0.000000 0.000000 17.192248 8.648811 -6.553887 -1.813637 -8.466678 24.140657 -0.989935 -8.252763 -23.501900 -0.018006 0.864252 -2.375375 -2.212251 1.759651 0.612475 -1.576933 2.404634 3.353589 -0.333705 1.158649 3.080711 2.465798 -0.567269 -5.167127 8.422888 -5.092141 40.427754 2.421034 -0.888730 15.299148 0.000000 0.000000 0.000000 1.258571 2.117642 -13.644421 15.307347 -24.572521 3.352711 15.967286 31.765728 -29.198536 0.000000 0.000000 0.000000 -7.125000 0.000000 0.000000 -17.081890 59.322982 6.097980 0.000000 0.000000 0.000000 -0.848209 0.449841 20.168596 -20.270011 -30.966187 -5.669656 -25.069562 6.224883 -23.429854 0.000000 0.000000 0.000000 7.125000 0.000000 0.000000 2.524550 4.432989 2.323805
12.695164 17.807800 -13.172986 4.131726 -19.095533 3.005472 0.000000 0.000000 0.000000 -19.623723 -1.694692 -13.134861 1.000715 6.365703 17.849426 0.204362 7.054083 -13.871813 1.080640 6.607392 18.557428 0.000000 0.000000 0.000000 17.447429 8.977389 -6.581786 -1.809269 -8.457023 24.111028 -0.994981 -8.296971 -23.578162 -0.014803 0.782031 -2.149208 -2.042751 1.865030 0.498984 -1.499097 2.542400 3.227448 -0.343696 1.232422 3.015339 2.555211 -0.511381 -4.590094 8.751059 -5.026798 39.742195 2.521622 -0.840544 14.823878 0.000000 0.000000 0.000000 1.245910 2.400110 -13.620932 15.098372 -24.282668 3.266421 22.805329 34.226836 -26.195246 0.000000 0.000000 0.000000 -7.125000 0.000000 0.000000 -8.091236 57.843226 2.699766 0.000000 0.000000 0.000000 -0.834942 0.665430 19.981504 -20.280991 -30.979441 -5.675272 -25.181355 6.202551 -23.291925 0.000000 0.000000 0.000000 7.125000 0.000000 0.000000 2.438316 4.558729 2.239005
12.672146 17.801407 -13.183992 4.022081 -19.309668 3.021635 0.000000 0.000000 0.000000 -19.385772 -1.743214 -13.260031 1.035426 6.471646 18.159334 0.220152 7.119752 -14.181106 1.124386 6.734255 18.930915 0.000000 0.000000 0.000000 17.638271 9.080960 -6.584210 -1.809279 -8.456980 24.110906 -0.955004 -8.327449 -23.260628 -0.043643 1.262575 -3.472672 -2.037873 1.764893 0.425510 -1.364434 2.407790 3.217524 -0.208702 1.163182 3.041951 2.520814 -0.266723 -4.391219 8.996432 -4.674174 39.215275 2.650857 -0.686718 14.503369 0.000000 0.000000 0.000000 1.084525 2.477154 -12.937701 14.830824 -23.909409 3.157307 20.800604 33.808621 -27.259351 0.000000 0.000000 0.000000 -7.125000 0.000000 0.000000 -10.830084 58.464460 3.774819 0.000000 0.000000 0.000000 -0.969267 0.508757 20.356075 -20.134319 -30.803601 -5.600142 -25.364813 6.304434 -22.826407 0.000000 0.000000 0.000000 7.125000 0.000000 0.000000 2.268213 5.020421 2.063467
12.650389 17.788363 -13.190617 3.860018 -19.565422 2.987689 0.000000 0.000000 0.000000 -19.090755 -1.646203 -13.355823 1.075853 6.592645 18.514216 0.249179 7.006364 -14.496565 1.239959 7.055883 19.883156 0.000000 0.000000 0.000000 17.848739 8.852098 -6.651519 -1.809957 -8.458428 24.115426 -0.880442 -8.251165 -22.550443 -0.137491 2.285782 -6.300822 -1.959276 1.673968 0.406210 -1.255195 2.284995 3.304566 -0.140854 1.101142 3.142146 2.672509 -0.023392 -4.661319 9.087084 -4.356074 38.864451 2.685005 -0.521396 14.376132 0.000000 0.000000 0.000000 1.009889 2.391721 -12.122553 14.581069 -23.559021 3.056682 15.170052 32.352468 -29.632888 0.000000 0.000000 0.000000 -7.125000 0.000000 0.000000 -18.228980 59.552795 6.625528 0.000000 0.000000 0.000000 -1.014547 0.153680 20.627009 -19.949188 -30.580914 -5.505558 -25.547725 6.514244 -22.505316 0.000000 0.000000 0.000000 7.125000 0.000000 0.000000 2.115905 5.328506 1.911621
12.629608 17.776893 -13.195513 3.656119 -19.871725 3.005359 0.000000 0.000000 0.000000 -18.765736 -1.296986 -13.610862 1.123730 6.732985 18.926944 0.278243 6.737471 -14.654000 1.305142 7.235002 20.414386 0.000000 0.000000 0.000000 18.088186 8.560636 -6.783923 -1.809560 -8.457521 24.112732 -0.828623 -8.028149 -21.913509 -0.234202 3.114552 -8.597911 -1.798008 1.673275 0.355356 -1.213845 2.285852 3.503912 -0.183329 1.102501 3.381650 3.117170 0.142707 -5.499451 9.022816 -4.209632 38.645016 2.588494 -0.386042 14.449097 0.000000 0.000000 0.000000 1.053065 2.103231 -11.378431 14.404254 -23.309643 2.986245 13.461838 32.279321 -30.020515 0.000000 0.000000 0.000000 -7.125000 0.000000 0.000000 -20.316911 59.527467 7.402184 0.000000 0.000000 0.000000 -0.895310 -0.366644 20.636296 -19.835661 -30.443760 -5.447790 -25.624198 6.754012 -22.412036 0.000000 0.000000 0.000000 7.125000 0.000000 0.000000 2.057097 5.413889 1.855044
